<svg width="172" height="298" viewBox="0 0 172 298" fill="none" xmlns="http://www.w3.org/2000/svg">
<g clip-path="url(#clip0_1825_367)">
<path d="M43.4669 144.983L26.3029 96.748C23.9209 90.052 28.7559 82.948 35.6129 83.225C128.328 86.968 175.948 119.889 171.556 216.594C155.737 149.707 79.8619 144.983 43.4669 144.983Z" fill="#E4E4E4"/>
<path d="M18.947 61.028L1.03398 14.166C-1.54002 7.435 3.28799 0.129002 10.25 0.206002C104.607 1.24 170.745 6.441 170.745 131.828C154.925 64.941 55.343 61.028 18.947 61.028Z" fill="#E4E4E4"/>
<path d="M68.6147 231.628L50.2757 180.219C47.8997 173.559 52.6557 166.472 59.4777 166.771C135.459 170.094 173.515 202.13 169.165 297.916C153.345 231.028 105.273 231.628 68.6147 231.628Z" fill="#E4E4E4"/>
</g>
<defs>
<clipPath id="clip0_1825_367">
<rect width="172" height="298" fill="white"/>
</clipPath>
</defs>
</svg>
