<svg width="96" height="20" viewBox="0 0 96 20" fill="none" xmlns="http://www.w3.org/2000/svg">
<g opacity="0.8" clip-path="url(#clip0_179_7579)">
<path d="M0 0.5H19.2743V19.5H0V0.5Z" fill="#FF5A00"/>
<path d="M53.9023 4.25977C54.0673 4.25977 54.1086 4.46189 54.1086 4.6236C54.1499 5.2704 54.1912 5.87679 54.1912 6.5236C54.2324 7.12998 54.2324 7.73636 54.2324 8.34274C54.6039 8.05977 54.9341 7.77679 55.3468 7.65551C56.0072 7.37253 56.7913 7.37253 57.4517 7.69594C58.1533 8.05977 58.6073 8.70657 58.855 9.39381C59.0613 10.081 59.1439 10.8087 59.1026 11.4959C59.02 12.3449 58.8137 13.1534 58.3184 13.8406C58.0295 14.2449 57.6581 14.5683 57.1628 14.73C56.3786 15.013 55.5532 14.8917 54.8515 14.4874C54.6452 14.3661 54.4388 14.164 54.2737 14.0023C54.1912 14.2449 54.1499 14.4874 54.0673 14.73C53.6959 14.73 53.3657 14.7704 52.9943 14.6896C53.1181 14.1236 53.1181 13.5172 53.1593 12.9513C53.2006 10.8896 53.1593 8.82785 53.1593 6.80657C53.1181 5.99806 53.1593 5.18955 53.0355 4.42147C53.2832 4.34062 53.6133 4.25977 53.9023 4.25977ZM56.6262 8.50445C56.2961 8.42359 55.9659 8.4236 55.677 8.46402C55.0992 8.54487 54.6452 8.94913 54.2737 9.35338C54.2737 9.47466 54.2737 9.63636 54.2737 9.75764V13.0321C54.2737 13.1534 54.3562 13.2342 54.4388 13.2747C55.0166 13.8002 55.8421 14.0427 56.585 13.881C56.9564 13.8002 57.2866 13.5576 57.4517 13.2342C57.7406 12.7896 57.8231 12.264 57.8644 11.7385C57.9057 11.3342 57.947 10.93 57.9057 10.5661C57.9057 10.1215 57.7819 9.63636 57.5342 9.23211C57.3279 8.82785 56.9977 8.5853 56.6262 8.50445ZM61.3726 4.54274C61.5789 4.46189 61.8679 4.46189 62.0742 4.58317C62.2806 4.70445 62.4457 4.90657 62.5282 5.1087C62.652 5.59381 62.2806 6.11934 61.7853 6.15977C61.4139 6.20019 61.0011 5.99806 60.8773 5.59381C60.7122 5.22998 60.9599 4.70445 61.3726 4.54274ZM27.2402 5.39168C27.7767 5.02785 28.4371 4.74487 29.0974 4.74487C29.7991 4.74487 30.5007 4.7853 31.1198 5.06828C31.3674 5.18955 31.6151 5.31083 31.8627 5.47253C31.6976 5.75551 31.4912 5.95764 31.2849 6.20019C31.0372 6.07891 30.7896 5.91721 30.5007 5.79594C29.8403 5.55338 29.0562 5.51296 28.3958 5.79594C27.818 5.99806 27.364 6.44274 27.0751 6.96828C26.91 7.37253 26.7449 7.77679 26.6624 8.18104C26.5798 8.5853 26.5798 8.98955 26.5385 9.39381C26.5385 9.91934 26.4973 10.4853 26.5385 11.0108C26.6211 11.7789 26.91 12.5066 27.4053 13.0725C27.8593 13.5981 28.5196 13.881 29.2213 13.9619C29.5927 13.9619 29.9229 13.9619 30.2943 13.881C30.7071 13.8002 31.0785 13.5576 31.4912 13.3959C31.6976 13.5981 31.904 13.881 32.1103 14.1236C31.8214 14.2853 31.5325 14.447 31.2023 14.5683C30.3769 14.8917 29.4276 14.9321 28.5609 14.8108C27.9005 14.6896 27.3227 14.3661 26.8274 13.9619C26.2496 13.4768 25.8369 12.83 25.5893 12.1427C25.4242 11.6576 25.3416 11.1725 25.3004 10.6874C25.3004 10.3236 25.2178 9.95976 25.3004 9.55551C25.3004 8.86828 25.4242 8.14062 25.7131 7.49381C26.002 6.6853 26.4973 5.91721 27.2402 5.39168Z" fill="#FF5A00"/>
<path d="M5.69531 5.22973C5.77786 5.22973 5.8604 5.18931 5.94295 5.18931C6.35567 5.18931 6.7684 5.18931 7.18112 5.22973C7.26367 5.22973 7.26367 5.27016 7.30494 5.31058C7.92403 6.56377 8.54312 7.85739 9.20348 9.15101C9.3273 9.43399 9.45112 9.67654 9.61621 9.91909C9.74002 9.71697 9.86384 9.51484 9.98766 9.27228C10.6893 7.89782 11.3909 6.56377 12.0926 5.18931C12.5466 5.18931 13.0006 5.14888 13.4958 5.22973C13.4133 5.51271 13.2482 5.71484 13.1244 5.95739C12.2164 7.69569 11.2671 9.43399 10.3178 11.1723C10.2766 11.2531 10.2766 11.2936 10.2766 11.3744C10.2766 12.6276 10.2766 13.8808 10.2766 15.0936C9.82257 15.0936 9.36857 15.0936 8.91457 15.0936C8.91457 13.8808 8.91457 12.668 8.91457 11.4553C8.91457 11.334 8.91457 11.1723 8.83203 11.051C7.9653 9.47441 7.13985 7.89782 6.27313 6.2808C6.10804 5.95739 5.90168 5.59356 5.69531 5.22973Z" fill="#FFFEFE"/>
<path d="M80.1509 5.79567C80.5224 5.6744 80.8938 5.59355 81.3065 5.5127C81.224 6.19993 81.1827 6.88716 81.1827 7.61482C81.7605 7.61482 82.3796 7.61482 82.9574 7.65525C82.8749 7.93823 82.7511 8.18078 82.6273 8.42333C82.132 8.42333 81.6367 8.42333 81.1002 8.42333C81.1002 9.07014 81.1002 9.71695 81.1002 10.3638C81.1002 10.8489 81.1415 11.3744 81.1002 11.8999C81.1002 12.4659 81.1002 13.0723 81.1415 13.6382C81.1415 13.8808 81.3891 14.0425 81.5955 14.1233C81.9669 14.2042 82.3384 14.1638 82.7098 14.0829C82.7924 14.285 82.8336 14.5276 82.8336 14.7297C82.5034 14.8914 82.132 14.9318 81.7605 14.9723C81.2653 14.9723 80.6875 14.8914 80.316 14.5276C80.0271 14.2446 80.0271 13.7999 79.9858 13.4361C79.9445 12.6276 79.9858 11.7787 79.9445 10.9701C79.9445 10.1212 79.9445 9.3127 79.9445 8.46376C79.6144 8.46376 79.2842 8.46376 78.9953 8.46376C78.9953 8.18078 78.9953 7.8978 78.9953 7.65525C79.3255 7.65525 79.6144 7.65525 79.9445 7.65525C80.0684 7.00844 80.0684 6.36163 80.1509 5.79567ZM36.402 7.4127C36.6909 7.4127 37.0211 7.4127 37.31 7.49355C37.9703 7.69567 38.5482 8.18078 38.8783 8.74674C39.1673 9.27227 39.3736 9.83823 39.4149 10.4446C39.4562 11.2531 39.4974 12.0616 39.2085 12.8297C38.9609 13.5574 38.4656 14.2042 37.764 14.568C37.0624 14.9318 36.2369 14.9723 35.494 14.7701C34.8336 14.6084 34.2558 14.1638 33.8431 13.5978C33.4304 12.9914 33.2653 12.2638 33.2653 11.4957C33.2653 10.8084 33.224 10.0808 33.4716 9.39355C33.678 8.74674 34.132 8.14035 34.7511 7.7361C35.04 7.5744 35.3289 7.4127 35.6591 7.37227C35.9067 7.4127 36.1544 7.4127 36.402 7.4127ZM35.8242 8.34248C35.4527 8.42333 35.0813 8.66589 34.8749 8.98929C34.586 9.4744 34.5035 10.0404 34.5035 10.6063C34.4622 11.0106 34.5035 11.4148 34.5447 11.8191C34.6273 12.3042 34.7098 12.8297 34.9574 13.2744C35.2051 13.7595 35.7416 13.9616 36.2782 14.0021C36.7734 14.0425 37.31 13.9212 37.6814 13.517C37.9703 13.1935 38.1354 12.8297 38.1767 12.385C38.2593 11.8595 38.2593 11.334 38.218 10.8489C38.218 10.3233 38.1354 9.75738 37.9291 9.23184C37.8053 8.90844 37.5576 8.66589 37.2687 8.50418C36.8147 8.26163 36.3194 8.22121 35.8242 8.34248ZM41.4372 7.65525C41.7674 7.53397 42.0976 7.45312 42.4691 7.4127C42.5929 7.7361 42.6754 8.0595 42.7167 8.42333C42.9643 8.30206 43.1294 8.09993 43.3771 7.97865C43.8723 7.61482 44.4914 7.4127 45.1105 7.4127C45.2343 7.4127 45.3994 7.45312 45.5232 7.53397C45.7296 7.65525 45.936 7.7361 46.1423 7.8978C46.3074 8.0595 46.4312 8.30206 46.555 8.50418C46.844 8.38291 47.0503 8.14036 47.2979 7.97865C47.7107 7.69567 48.2059 7.45312 48.7838 7.4127C49.279 7.37227 49.7743 7.53397 50.1458 7.85738C50.3108 8.01908 50.4759 8.18078 50.5585 8.38291C50.641 8.58504 50.6823 8.78716 50.6823 9.02972C50.7648 10.1616 50.7236 11.334 50.7648 12.4659C50.7648 13.234 50.7648 14.0021 50.7648 14.7701C50.3934 14.7701 49.9807 14.7701 49.6092 14.7701C49.6092 13.6382 49.6092 12.4659 49.6092 11.334C49.6092 10.6063 49.6092 9.87865 49.5679 9.11057C49.5267 8.86801 49.4028 8.66589 49.1965 8.50418C48.9901 8.38291 48.7012 8.38291 48.4123 8.38291C47.9583 8.42333 47.5869 8.70631 47.2154 8.98929C47.0503 9.11057 46.8852 9.27227 46.7201 9.39355C46.6789 9.43397 46.6789 9.51482 46.6789 9.55525C46.6789 11.2935 46.6789 12.9914 46.6789 14.7297C46.3074 14.7297 45.8947 14.7297 45.5232 14.7297V10.6872C45.5232 10.3638 45.5232 10.0404 45.5232 9.71695C45.5232 9.39355 45.5232 9.02972 45.3994 8.74674C45.1518 8.42333 44.6978 8.34248 44.3263 8.46376C43.7485 8.58504 43.2532 8.94887 42.7992 9.35312C42.7167 9.39355 42.7167 9.4744 42.7167 9.55525C42.7167 11.2935 42.7167 13.0318 42.7167 14.7701C42.3865 14.7701 42.0563 14.7701 41.7262 14.7701C41.6849 12.9914 41.7262 11.2127 41.6436 9.43397C41.6436 9.02972 41.6436 8.62546 41.5611 8.22121C41.5198 8.01908 41.4372 7.81695 41.4372 7.65525ZM61.1243 7.61482C61.4957 7.5744 61.8672 7.49355 62.2386 7.4127C62.2799 8.42333 62.2799 9.43397 62.2799 10.4042C62.2799 11.8595 62.2799 13.2744 62.2799 14.7297C61.9084 14.7297 61.4957 14.7297 61.1243 14.7297C61.1243 12.668 61.1243 10.6063 61.1243 8.54461C61.1243 8.26163 61.083 7.8978 61.1243 7.61482ZM75.9411 7.45312C76.7253 7.5744 77.3857 8.30206 77.4269 9.11057C77.4682 10.2829 77.4269 11.4957 77.4269 12.668V13.0318C77.4269 13.2744 77.4269 13.517 77.5095 13.7191C77.5507 13.9616 77.7984 14.0829 77.9635 14.2042C77.7984 14.4063 77.6746 14.6893 77.4682 14.851C77.3444 14.9723 77.1793 14.851 77.0967 14.7701C76.8078 14.568 76.6427 14.285 76.4777 13.9616C76.23 14.0829 76.0649 14.3255 75.776 14.4467C75.3633 14.7297 74.868 14.851 74.3315 14.851C73.8775 14.851 73.4235 14.7701 73.0108 14.568C72.3504 14.2042 71.9789 13.4765 72.0202 12.7489C72.0202 12.0616 72.3917 11.3744 72.9282 10.9701C73.5886 10.485 74.4553 10.3233 75.2807 10.2425C75.6522 10.2021 76.0237 10.2021 76.4364 10.2021C76.4364 9.83823 76.4364 9.4744 76.3538 9.11057C76.3126 8.82759 76.1475 8.50418 75.8586 8.34248C75.5284 8.18078 75.1157 8.14036 74.7442 8.22121C74.0426 8.30206 73.3822 8.58504 72.8044 8.98929C72.6393 8.78716 72.4742 8.58504 72.3504 8.34248C72.2679 8.22121 72.3917 8.14035 72.4742 8.09993C73.2584 7.69567 74.0838 7.33184 74.9918 7.33184H75.3633C75.5697 7.4127 75.7347 7.4127 75.9411 7.45312ZM75.4458 11.051C75.0744 11.0914 74.7442 11.0914 74.3728 11.1723C73.96 11.2935 73.5886 11.5361 73.3409 11.8999C73.2171 12.1021 73.2171 12.3446 73.2171 12.5872C73.2171 12.8297 73.1758 13.1127 73.2997 13.3552C73.3822 13.5978 73.5886 13.8404 73.8362 13.9212C74.1251 14.0425 74.4553 14.0425 74.7855 14.0425C75.1569 14.0021 75.4871 13.7999 75.776 13.5574C76.0237 13.3552 76.2713 13.1127 76.2713 12.7893C76.3126 12.2233 76.3126 11.617 76.3126 11.051C76.0237 11.0914 75.7347 11.0106 75.4458 11.051ZM87.9927 7.49355C88.6531 7.65525 89.2309 8.0595 89.6436 8.58504C89.9738 9.02972 90.1801 9.51482 90.2627 10.0404C90.3452 10.5255 90.3865 11.051 90.3452 11.5765C90.3452 12.4255 90.0563 13.234 89.5611 13.8808C89.1483 14.4063 88.488 14.7297 87.8689 14.851C87.0847 14.9723 86.218 14.851 85.5163 14.3659C84.9385 13.9616 84.5671 13.3148 84.3607 12.6276C84.2369 12.2638 84.2369 11.9404 84.1956 11.5765C84.1956 10.9701 84.1956 10.4042 84.2782 9.7978C84.4433 9.15099 84.7734 8.50419 85.2687 8.01908C85.6402 7.65525 86.1354 7.45312 86.6307 7.37227C87.126 7.37227 87.58 7.4127 87.9927 7.49355ZM86.7545 8.34248C86.218 8.42333 85.764 8.82759 85.5989 9.3127C85.3925 9.83823 85.3925 10.4042 85.3925 10.9297C85.3925 11.4552 85.3925 11.9808 85.5163 12.4659C85.5989 12.8297 85.6814 13.1531 85.9291 13.4361C86.1354 13.7191 86.5069 13.8808 86.8371 13.9212C86.9609 13.9616 87.126 13.9616 87.2498 13.9616H87.3736H87.4974C87.7863 13.9212 88.034 13.8404 88.2816 13.7191C88.5705 13.5574 88.7769 13.2744 88.9007 12.951C89.0245 12.5872 89.0658 12.1829 89.1071 11.8191C89.1071 11.3744 89.1483 10.9297 89.1071 10.4446C89.0658 9.9595 89.0245 9.4744 88.7769 9.07014C88.5705 8.74674 88.2816 8.50418 87.9102 8.34248C87.5387 8.26163 87.126 8.26163 86.7545 8.34248ZM92.3263 7.69567C92.6978 7.61482 93.028 7.49355 93.3581 7.4127C93.5645 7.77653 93.5645 8.18078 93.6058 8.54461C93.7709 8.42333 93.936 8.26163 94.101 8.09993C94.5963 7.61482 95.3392 7.33184 96.0409 7.45312V7.53397C95.8758 7.85738 95.7932 8.22121 95.6281 8.58504C95.6281 8.66589 95.5043 8.62546 95.463 8.62546C95.1741 8.62546 94.8027 8.62546 94.555 8.78716C94.2661 8.94887 94.0598 9.15099 93.8534 9.39355C93.647 9.6361 93.6883 9.9595 93.6883 10.2425C93.6883 10.6467 93.647 11.051 93.6883 11.4552C93.6883 12.5467 93.6883 13.6787 93.6883 14.7701C93.3169 14.7701 92.9041 14.7701 92.5327 14.7701C92.5327 13.5574 92.5327 12.3042 92.5327 11.0914C92.5327 10.2425 92.5327 9.43397 92.4914 8.58504C92.4501 8.26163 92.3676 7.97865 92.3263 7.69567ZM64.5086 7.69567C64.8388 7.5744 65.2102 7.45312 65.5404 7.45312C65.6642 7.77653 65.7468 8.14036 65.7881 8.46376C66.077 8.26163 66.3659 8.01908 66.6548 7.85738C67.2739 7.49355 68.0168 7.25099 68.6771 7.49355C69.0899 7.61482 69.4613 7.85738 69.709 8.22121C69.9153 8.46376 69.9566 8.82759 69.9979 9.11057C70.0804 10.2425 70.0391 11.334 70.0391 12.4659C70.0391 13.234 70.0391 13.9616 70.0391 14.6893C69.6677 14.6893 69.255 14.6893 68.8835 14.6893C68.8835 13.4765 68.8422 12.2233 68.8422 11.0106C68.8422 10.3233 68.8422 9.6361 68.7597 8.94887C68.6359 8.62546 68.347 8.34248 67.9755 8.34248C67.7279 8.34248 67.439 8.34248 67.1913 8.42333C66.6548 8.62546 66.1595 8.94887 65.7055 9.3127C65.7055 11.0914 65.7055 12.9106 65.7055 14.6893C65.3753 14.6893 65.0452 14.6893 64.715 14.6893C64.715 13.6787 64.6737 12.668 64.6737 11.617C64.6737 10.5659 64.6737 9.51482 64.5912 8.46376C64.6737 8.26163 64.5912 7.97865 64.5086 7.69567Z" fill="#FF5A00"/>
</g>
<defs>
<clipPath id="clip0_179_7579">
<rect width="96" height="19" fill="white" transform="translate(0 0.5)"/>
</clipPath>
</defs>
</svg>
